<svg width="64" height="64" viewBox="0 0 64 64" fill="none" xmlns="http://www.w3.org/2000/svg">
  <rect x="12" y="12" width="40" height="40" rx="12" fill="#25D366"/>
  <path d="M44 20C41.9 18.4 39.3 17.4 36.5 17.4C29.4 17.4 23.7 23 23.7 30.1C23.7 32.2 24.2 34.2 25.1 36L20.6 44.4L29.2 40.1C31.1 40.9 33.2 41.4 35.4 41.4H35.4C42.5 41.4 48.2 35.8 48.2 28.7C48.2 25.9 47.2 23.2 44 20Z" fill="white"/>
  <path d="M39.6 34.4C39.2 34.2 36.7 33 36.2 32.9C35.8 32.8 35.5 32.8 35.2 33.2C34.9 33.6 34.2 34.4 34 34.7C33.8 35 33.6 35.1 33.2 34.8C32.8 34.6 31.6 34.1 30.2 32.8C29.1 31.7 28.3 30.4 28.1 29.9C27.9 29.5 28.1 29.2 28.4 28.9C28.7 28.6 29 28.3 29.2 28.1C29.4 27.9 29.5 27.7 29.6 27.4C29.8 27 29.7 26.7 29.6 26.5L29 25.4C28.8 25 28.3 24.8 27.8 24.8C27.4 24.8 27 24.9 26.7 25.2L25.8 26.1C24.8 27.1 24.8 28.8 25.9 30.2C27 31.6 28.6 33.4 30.4 34.7C32.5 36.2 34.7 37.2 36.6 37.4C37.1 37.4 37.6 37.3 38.1 37.2C38.7 37.1 39.3 36.7 39.7 36.2L40.5 35.2C40.8 34.8 40.8 34.3 40.5 33.9L39.6 34.4Z" fill="#25D366"/>
</svg>
